<svg xmlns="http://www.w3.org/2000/svg"
 xmlns:xlink="http://www.w3.org/1999/xlink"
 width="30px" height="25px"  viewBox="0 0 30 25">
<path fill-rule="evenodd"  fill="#e74c3c"
 d="M22.62085,23.11914 C22.62085,23.11914 17.428467,23.11914 17.428467,23.11914 C17.428467,23.11914 17.428467,21.212158 17.428467,21.212158 C17.428467,20.969238 17.229248,20.772217 16.983398,20.772217 C16.73767,20.772217 16.53833,20.969238 16.53833,21.212158 C16.53833,21.212158 16.53833,23.11914 16.53833,23.11914 C16.53833,23.11914 14.461548,23.11914 14.461548,23.11914 C14.461548,23.11914 14.461548,21.212158 14.461548,21.212158 C14.461548,20.969238 14.262207,20.772217 14.0164795,20.772217 C13.77063,20.772217 13.571411,20.969238 13.571411,21.212158 C13.571411,21.212158 13.571411,23.11914 13.571411,23.11914 C13.571411,23.11914 8.379028,23.11914 8.379028,23.11914 C8.133301,23.11914 7.93396,23.31543 7.93396,23.558838 C7.93396,23.801758 8.133301,23.999268 8.379028,23.999268 C8.379028,23.999268 22.62085,23.999268 22.62085,23.999268 C22.866577,23.999268 23.065796,23.801758 23.065796,23.558838 C23.065796,23.31543 22.866577,23.11914 22.62085,23.11914 ZM27.961548,1.9990234 C27.961548,1.9990234 3.0384521,1.9990234 3.0384521,1.9990234 C2.4658203,1.9990234 1.9998779,2.4597168 1.9998779,3.0263672 C1.9998779,3.0263672 1.9998779,18.865967 1.9998779,18.865967 C1.9998779,19.431885 2.4658203,19.89209 3.0384521,19.89209 C3.0384521,19.89209 22.769165,19.89209 22.769165,19.89209 C22.769165,19.89209 22.769165,20.039795 22.769165,20.039795 C22.769165,20.281982 22.968506,20.47876 23.214233,20.47876 C23.45996,20.47876 23.659302,20.281982 23.659302,20.039795 C23.659302,20.039795 23.659302,19.89209 23.659302,19.89209 C23.659302,19.89209 24.549316,19.89209 24.549316,19.89209 C24.549316,19.89209 24.549316,20.039795 24.549316,20.039795 C24.549316,20.281982 24.748657,20.47876 24.994385,20.47876 C25.240234,20.47876 25.439453,20.281982 25.439453,20.039795 C25.439453,20.039795 25.439453,19.89209 25.439453,19.89209 C25.439453,19.89209 26.32959,19.89209 26.32959,19.89209 C26.32959,19.89209 26.32959,20.039795 26.32959,20.039795 C26.32959,20.281982 26.528809,20.47876 26.774658,20.47876 C27.020508,20.47876 27.219727,20.281982 27.219727,20.039795 C27.219727,20.039795 27.219727,19.89209 27.219727,19.89209 C27.219727,19.89209 27.961548,19.89209 27.961548,19.89209 C28.534058,19.89209 29.0,19.431885 29.0,18.865967 C29.0,18.865967 29.0,3.0263672 29.0,3.0263672 C29.0,2.4597168 28.534058,1.9990234 27.961548,1.9990234 ZM28.109863,18.865967 C28.109863,18.945068 28.04187,19.012451 27.961548,19.012451 C27.961548,19.012451 3.0384521,19.012451 3.0384521,19.012451 C2.9580078,19.012451 2.8900146,18.945068 2.8900146,18.865967 C2.8900146,18.865967 2.8900146,3.0263672 2.8900146,3.0263672 C2.8900146,2.9467773 2.9580078,2.878662 3.0384521,2.878662 C3.0384521,2.878662 27.961548,2.878662 27.961548,2.878662 C28.04187,2.878662 28.109863,2.9467773 28.109863,3.0263672 C28.109863,3.0263672 28.109863,18.865967 28.109863,18.865967 ZM26.774658,3.7595215 C26.774658,3.7595215 4.2252197,3.7595215 4.2252197,3.7595215 C3.97937,3.7595215 3.7801514,3.9558105 3.7801514,4.1987305 C3.7801514,4.4421387 3.97937,4.63916 4.2252197,4.63916 C4.2252197,4.63916 26.32959,4.63916 26.32959,4.63916 C26.32959,4.63916 26.32959,13.585693 26.32959,13.585693 C26.32959,13.828613 26.528809,14.025391 26.774658,14.025391 C27.020508,14.025391 27.219727,13.828613 27.219727,13.585693 C27.219727,13.585693 27.219727,4.1987305 27.219727,4.1987305 C27.219727,3.9558105 27.020508,3.7595215 26.774658,3.7595215 ZM26.774658,14.905762 C26.528809,14.905762 26.32959,15.102783 26.32959,15.345459 C26.32959,15.345459 26.32959,17.252441 26.32959,17.252441 C26.32959,17.252441 4.670288,17.252441 4.670288,17.252441 C4.670288,17.252441 4.670288,5.9592285 4.670288,5.9592285 C4.670288,5.7158203 4.4710693,5.5195312 4.2252197,5.5195312 C3.97937,5.5195312 3.7801514,5.7158203 3.7801514,5.9592285 C3.7801514,5.9592285 3.7801514,17.69165 3.7801514,17.69165 C3.7801514,17.935059 3.97937,18.132812 4.2252197,18.132812 C4.2252197,18.132812 26.774658,18.132812 26.774658,18.132812 C27.020508,18.132812 27.219727,17.935059 27.219727,17.69165 C27.219727,17.69165 27.219727,15.345459 27.219727,15.345459 C27.219727,15.102783 27.020508,14.905762 26.774658,14.905762 Z"/>
</svg>