<svg xmlns="http://www.w3.org/2000/svg"
 xmlns:xlink="http://www.w3.org/1999/xlink"
 width="34px" height="29px"  viewBox="0 0 34 29">
<path fill-rule="evenodd"  fill="#e74c3c"
 d="M19.396362,1.9985352 C18.883911,1.9985352 18.371338,2.1037598 17.937012,2.3137207 C17.937012,2.3137207 2.7739258,9.626953 2.7739258,9.626953 C2.3393555,9.836182 2.001709,10.180908 2.001709,10.624756 C2.001709,11.069824 2.3393555,11.4140625 2.7739258,11.623047 C2.7739258,11.623047 11.303101,15.737061 11.303101,15.737061 C11.366455,15.767578 11.436401,15.782227 11.506958,15.781738 C11.506958,15.781738 20.03601,15.62915 20.03601,15.62915 C20.101196,15.62793 20.165283,15.613037 20.223633,15.584717 C20.223633,15.584717 32.22766,9.794922 32.22766,9.794922 C32.662354,9.585205 32.999878,9.241943 32.999878,8.796631 C32.999878,8.3515625 32.662354,8.008057 32.22766,7.79834 C32.22766,7.79834 20.855469,2.3137207 20.855469,2.3137207 C20.420898,2.1037598 19.908691,1.9985352 19.396362,1.9985352 ZM19.396362,2.89917 C19.797485,2.89917 20.198486,2.9631348 20.464111,3.0913086 C20.464111,3.0913086 31.83606,8.576172 31.83606,8.576172 C32.10144,8.704346 32.11389,8.801514 32.11389,8.796631 C32.11389,8.791992 32.10144,8.88916 31.83606,9.017334 C31.83606,9.017334 20.027954,14.712402 20.027954,14.712402 C20.027954,14.712402 15.801392,12.674072 15.801392,12.674072 C15.734741,12.641602 15.661011,12.626221 15.58667,12.629395 C15.525269,12.63208 15.464966,12.646973 15.409668,12.674072 C15.409668,12.674072 11.182861,14.712402 11.182861,14.712402 C11.182861,14.712402 3.1657715,10.845947 3.1657715,10.845947 C2.9003906,10.717773 2.8879395,10.620605 2.8879395,10.624756 C2.8879395,10.629395 2.9003906,10.532227 3.1657715,10.404053 C3.1657715,10.404053 18.328491,3.0913086 18.328491,3.0913086 C18.593872,2.9626465 18.995117,2.89917 19.396362,2.89917 ZM20.650757,4.922119 C20.528442,4.925537 20.432007,5.024658 20.435303,5.1447754 C20.4375,5.225586 20.48645,5.2990723 20.56189,5.334961 C20.56189,5.334961 26.879883,8.3811035 26.879883,8.3811035 C26.98816,8.437744 27.12207,8.3967285 27.178833,8.290039 C27.235718,8.184814 27.194214,8.053467 27.085938,7.998047 C27.08252,7.9960938 27.079102,7.994629 27.075562,7.992676 C27.075562,7.992676 20.757568,4.945801 20.757568,4.945801 C20.724487,4.9294434 20.687744,4.9206543 20.650757,4.922119 ZM17.491821,6.4453125 C17.369629,6.4492188 17.273315,6.54834 17.276855,6.668457 C17.279297,6.7495117 17.32788,6.8222656 17.402954,6.857422 C17.402954,6.857422 23.720703,9.905029 23.720703,9.905029 C23.829102,9.9609375 23.963013,9.92041 24.019897,9.814697 C24.076782,9.70874 24.035034,9.577148 23.92688,9.52124 C23.923462,9.519775 23.920044,9.518555 23.916504,9.51709 C23.916504,9.51709 17.598755,6.4694824 17.598755,6.4694824 C17.565674,6.4526367 17.52893,6.44458 17.491821,6.4453125 ZM14.332886,7.968994 C14.210693,7.9731445 14.114258,8.072266 14.11792,8.192383 C14.120239,8.273926 14.169067,8.346191 14.244141,8.3811035 C14.244141,8.3811035 20.561768,11.428711 20.561768,11.428711 C20.671387,11.482178 20.804321,11.436768 20.858398,11.330322 C20.912476,11.223145 20.86731,11.092773 20.757446,11.040283 C20.757446,11.040283 14.439941,7.992676 14.439941,7.992676 C14.40686,7.9765625 14.369995,7.9682617 14.332886,7.968994 ZM8.873901,8.121582 C8.838989,8.121582 8.8046875,8.129639 8.773682,8.14502 C8.773682,8.14502 4.0352783,10.431152 4.0352783,10.431152 C3.925537,10.483643 3.880371,10.613281 3.9343262,10.721191 C3.9559326,10.763672 3.991333,10.798828 4.0352783,10.81958 C4.0352783,10.81958 6.246338,11.885498 6.246338,11.885498 C6.3547363,11.941406 6.4885254,11.900879 6.545532,11.795166 C6.602417,11.688477 6.560791,11.55835 6.4526367,11.502197 C6.4492188,11.500977 6.445801,11.499023 6.4421387,11.497559 C6.4421387,11.497559 4.6342773,10.624756 4.6342773,10.624756 C4.6342773,10.624756 8.96936,8.534424 8.96936,8.534424 C9.079834,8.482422 9.126953,8.353516 9.074463,8.245605 C9.037842,8.169434 8.959717,8.12085 8.873901,8.121582 ZM15.605347,13.546143 C15.605347,13.546143 18.194824,14.79541 18.194824,14.79541 C18.194824,14.79541 12.816772,14.891113 12.816772,14.891113 C12.816772,14.891113 15.605347,13.546143 15.605347,13.546143 ZM32.380737,13.599365 C32.29602,13.599365 32.212524,13.618408 32.136963,13.655518 C32.136963,13.655518 15.421387,21.602295 15.421387,21.602295 C15.421387,21.602295 2.790039,15.395752 2.790039,15.395752 C2.526245,15.261475 2.2017822,15.363525 2.0655518,15.621094 C1.9290771,15.879395 2.0324707,16.197266 2.2962646,16.33081 C2.3000488,16.332764 2.303833,16.333984 2.3076172,16.33667 C2.3076172,16.33667 15.17627,22.65918 15.17627,22.65918 C15.325806,22.733398 15.501953,22.73413 15.652344,22.662598 C15.652344,22.662598 32.60681,14.6032715 32.60681,14.6032715 C32.875732,14.479004 32.99182,14.166016 32.865967,13.902344 C32.77771,13.718262 32.588623,13.600098 32.380737,13.599365 ZM20.728394,17.809326 C20.686035,17.810059 20.64441,17.820068 20.607056,17.8396 C20.607056,17.8396 15.351196,20.411621 15.351196,20.411621 C15.351196,20.411621 10.633057,18.050049 10.633057,18.050049 C10.50061,17.98462 10.338623,18.035889 10.271118,18.165527 C10.203857,18.294434 10.2561035,18.453613 10.387939,18.519531 C10.387939,18.519531 15.227539,20.940674 15.227539,20.940674 C15.303589,20.978271 15.393555,20.979004 15.470093,20.941895 C15.470093,20.941895 20.847168,18.309814 20.847168,18.309814 C20.980957,18.246338 21.036987,18.089844 20.972534,17.958496 C20.92749,17.867432 20.832275,17.808594 20.728394,17.809326 ZM32.380737,18.850098 C32.29602,18.848877 32.212524,18.86914 32.136963,18.906006 C32.136963,18.906006 15.421387,26.851562 15.421387,26.851562 C15.421387,26.851562 2.790039,20.64502 2.790039,20.64502 C2.52771,20.50879 2.2021484,20.60669 2.0631104,20.86377 C1.9240723,21.119873 2.0239258,21.438965 2.286377,21.575195 C2.293335,21.578613 2.300415,21.582031 2.3076172,21.58545 C2.3076172,21.58545 15.17627,27.90918 15.17627,27.90918 C15.325806,27.982178 15.501953,27.98413 15.652344,27.911865 C15.652344,27.911865 32.60681,19.851807 32.60681,19.851807 C32.875732,19.729736 32.99182,19.416016 32.865967,19.153076 C32.77771,18.968262 32.588623,18.85083 32.380737,18.850098 ZM20.728394,23.059326 C20.686035,23.059326 20.64441,23.069336 20.607056,23.088379 C20.607056,23.088379 15.351196,25.6604 15.351196,25.6604 C15.351196,25.6604 10.633057,23.300781 10.633057,23.300781 C10.501709,23.232666 10.338989,23.28125 10.269287,23.408691 C10.199707,23.53833 10.249634,23.696777 10.380737,23.765625 C10.383179,23.766846 10.38562,23.767578 10.388062,23.769043 C10.388062,23.769043 15.227539,26.189941 15.227539,26.189941 C15.303711,26.22754 15.393677,26.228271 15.470215,26.19043 C15.470215,26.19043 20.84729,23.559082 20.84729,23.559082 C20.98108,23.496338 21.03711,23.338623 20.972656,23.208496 C20.92749,23.115967 20.832275,23.058594 20.728394,23.059326 Z"/>
</svg>