<svg xmlns="http://www.w3.org/2000/svg"
 xmlns:xlink="http://www.w3.org/1999/xlink"
 width="28px" height="25px"  viewBox="0 0 28 25">
<path fill-rule="evenodd"  fill="#e74c3c"
 d="M23.648193,6.2006836 C23.648193,6.2006836 21.024536,6.187256 21.024536,6.187256 C21.024536,6.187256 18.510864,2.3881836 18.510864,2.3881836 C18.359863,2.1520996 18.098755,1.9990234 17.824097,1.9990234 C17.824097,1.9990234 11.052246,1.9990234 11.052246,1.9990234 C10.777466,1.9990234 10.530151,2.1520996 10.379028,2.3747559 C10.379028,2.3747559 7.782959,6.187256 7.782959,6.187256 C7.782959,6.187256 5.3516846,6.2006836 5.3516846,6.2006836 C3.5109863,6.2006836 1.9998779,7.7319336 1.9998779,9.597168 C1.9998779,9.597168 1.9998779,20.57666 1.9998779,20.57666 C1.9998779,22.44043 3.5109863,23.999268 5.3515625,23.999268 C5.3515625,23.999268 23.648193,23.999268 23.648193,23.999268 C25.488892,23.999268 26.999878,22.44043 26.999878,20.57666 C26.999878,20.57666 26.999878,9.597168 26.999878,9.597168 C27.0,7.7319336 25.488892,6.2006836 23.648193,6.2006836 ZM25.351562,20.57666 C25.351562,21.521729 24.582275,22.329102 23.648315,22.329102 C23.648315,22.329102 5.3516846,22.329102 5.3516846,22.329102 C4.4176025,22.329102 3.6483154,21.521729 3.6483154,20.57666 C3.6483154,20.57666 3.6483154,9.597168 3.6483154,9.597168 C3.6483154,8.650635 4.4176025,7.8708496 5.3516846,7.8708496 C5.3516846,7.8708496 8.222534,7.8708496 8.222534,7.8708496 C8.497314,7.8708496 8.744507,7.718506 8.895508,7.495117 C8.895508,7.495117 11.491699,3.6818848 11.491699,3.6818848 C11.491699,3.6818848 17.384521,3.6818848 17.384521,3.6818848 C17.384521,3.6818848 19.884644,7.4675293 19.884644,7.4675293 C20.035645,7.6901855 20.296753,7.843994 20.557617,7.843994 C20.557617,7.843994 23.634644,7.871582 23.634644,7.871582 C24.568726,7.871582 25.33789,8.650635 25.33789,9.597168 C25.33789,9.597168 25.33789,20.57666 25.33789,20.57666 C25.33789,20.57666 25.351562,20.57666 25.351562,20.57666 C25.351562,20.57666 25.351562,20.57666 25.351562,20.57666 ZM14.5686035,8.205566 C11.340576,8.205566 8.730591,10.863281 8.730591,14.119141 C8.730591,17.375244 11.354248,20.032959 14.5686035,20.032959 C17.782959,20.032959 20.406616,17.375244 20.406616,14.119141 C20.406616,10.863281 17.782959,8.205566 14.5686035,8.205566 ZM14.5686035,18.363525 C12.260864,18.363525 10.379028,16.456543 10.379028,14.119141 C10.379028,11.78125 12.260864,9.875732 14.5686035,9.875732 C16.876343,9.875732 18.758179,11.78125 18.758179,14.119141 C18.758179,16.456543 16.876343,18.363525 14.5686035,18.363525 ZM22.384521,10.33374 C22.559082,10.33374 22.700562,10.477295 22.700562,10.654785 C22.700562,10.830811 22.559082,10.974609 22.384521,10.974609 C22.210083,10.974609 22.068604,10.830811 22.068604,10.654785 C22.068604,10.477295 22.210083,10.33374 22.384521,10.33374 ZM22.384521,9.499268 C21.752808,9.499268 21.244385,10.013916 21.244385,10.654785 C21.244385,11.294189 21.752686,11.808838 22.384521,11.808838 C23.016357,11.808838 23.524658,11.294189 23.524658,10.654785 C23.524658,10.013916 23.016357,9.499268 22.384521,9.499268 ZM22.384521,11.169434 C22.09607,11.169434 21.876343,10.932617 21.876343,10.654785 C21.876343,10.376221 22.109863,10.139404 22.384521,10.139404 C22.659302,10.139404 22.892822,10.376221 22.892822,10.654785 C22.892822,10.932617 22.672974,11.169434 22.384521,11.169434 Z"/>
</svg>