<svg xmlns="http://www.w3.org/2000/svg"
 xmlns:xlink="http://www.w3.org/1999/xlink"
 width="24px" height="32px"  viewBox="0 0 24 32">
<path fill-rule="evenodd"  fill="#ffffff"
 d="M21.086914,1.9995117 C21.086914,1.9995117 2.9129639,1.9995117 2.9129639,1.9995117 C1.8580322,1.9995117 1.0,2.784668 1.0,3.75 C1.0,3.75 1.0,28.757812 1.0,28.757812 C1.0,29.26416 1.2202148,29.667969 1.6040039,29.86914 C1.9880371,30.069336 2.480957,30.03711 2.956665,29.779785 C2.956665,29.779785 11.007935,25.427734 11.007935,25.427734 C11.536377,25.141602 12.463379,25.141602 12.991821,25.427734 C12.991821,25.427734 21.04309,29.779785 21.04309,29.779785 C21.312744,29.924805 21.587646,29.999023 21.845459,29.999023 C22.04248,29.999023 22.229492,29.955566 22.395874,29.86914 C22.779663,29.667969 22.999878,29.26416 22.999878,28.757812 C22.999878,28.757812 22.999878,3.75 22.999878,3.75 C22.999878,2.784668 22.141724,1.9995117 21.086914,1.9995117 ZM22.043457,28.757812 C22.043457,28.970703 21.977783,29.07959 21.921753,29.108887 C21.8656,29.137695 21.729248,29.13379 21.529785,29.026367 C21.529785,29.026367 13.478516,24.674316 13.478516,24.674316 C13.063965,24.450195 12.531982,24.33789 12.0,24.33789 C11.4678955,24.33789 10.935913,24.450195 10.521362,24.674316 C10.521362,24.674316 2.4700928,29.026367 2.4700928,29.026367 C2.2705078,29.13379 2.1342773,29.137695 2.078003,29.108887 C2.0219727,29.07959 1.956543,28.970703 1.956543,28.757812 C1.956543,28.757812 1.956543,3.75 1.956543,3.75 C1.956543,3.2670898 2.385498,2.8745117 2.9129639,2.8745117 C2.9129639,2.8745117 2.9129639,3.75 2.9129639,3.75 C2.9129639,3.991211 3.1270752,4.1865234 3.3912354,4.1865234 C3.6553955,4.1865234 3.8695068,3.991211 3.8695068,3.75 C3.8695068,3.75 3.8695068,2.8745117 3.8695068,2.8745117 C3.8695068,2.8745117 20.130371,2.8745117 20.130371,2.8745117 C20.130371,2.8745117 20.130371,3.75 20.130371,3.75 C20.130371,3.991211 20.344482,4.1865234 20.608643,4.1865234 C20.872803,4.1865234 21.086914,3.991211 21.086914,3.75 C21.086914,3.75 21.086914,2.8745117 21.086914,2.8745117 C21.614258,2.8745117 22.043457,3.2670898 22.043457,3.75 C22.043457,3.75 22.043457,28.757812 22.043457,28.757812 C22.043457,28.757812 22.043457,28.757812 22.043457,28.757812 ZM3.3912354,5.0620117 C3.1270752,5.0620117 2.9129639,5.258301 2.9129639,5.4995117 C2.9129639,5.4995117 2.9129639,6.3745117 2.9129639,6.3745117 C2.9129639,6.616211 3.1270752,6.8125 3.3912354,6.8125 C3.6553955,6.8125 3.8695068,6.616211 3.8695068,6.3745117 C3.8695068,6.3745117 3.8695068,5.4995117 3.8695068,5.4995117 C3.8695068,5.258301 3.6553955,5.0620117 3.3912354,5.0620117 ZM3.3912354,7.6865234 C3.1270752,7.6865234 2.9129639,7.8828125 2.9129639,8.124512 C2.9129639,8.124512 2.9129639,26.9375 2.9129639,26.9375 C2.9129639,27.178223 3.1270752,27.374512 3.3912354,27.374512 C3.6553955,27.374512 3.8695068,27.178223 3.8695068,26.9375 C3.8695068,26.9375 3.8695068,8.124512 3.8695068,8.124512 C3.8695068,7.8828125 3.6553955,7.6865234 3.3912354,7.6865234 ZM20.608643,5.0620117 C20.344482,5.0620117 20.130371,5.258301 20.130371,5.4995117 C20.130371,5.4995117 20.130371,6.3745117 20.130371,6.3745117 C20.130371,6.616211 20.344482,6.8125 20.608643,6.8125 C20.872803,6.8125 21.086914,6.616211 21.086914,6.3745117 C21.086914,6.3745117 21.086914,5.4995117 21.086914,5.4995117 C21.086914,5.258301 20.872803,5.0620117 20.608643,5.0620117 ZM20.608643,7.6865234 C20.344482,7.6865234 20.130371,7.8828125 20.130371,8.124512 C20.130371,8.124512 20.130371,26.9375 20.130371,26.9375 C20.130371,27.178223 20.344482,27.374512 20.608643,27.374512 C20.872803,27.374512 21.086914,27.178223 21.086914,26.9375 C21.086914,26.9375 21.086914,8.124512 21.086914,8.124512 C21.086914,7.8828125 20.872803,7.6865234 20.608643,7.6865234 Z"/>
</svg>