<svg xmlns="http://www.w3.org/2000/svg"
 xmlns:xlink="http://www.w3.org/1999/xlink"
 width="14px" height="23px"  viewBox="0 0 14 23">
<path fill-rule="evenodd"  fill="#ffffff"
 d="M1.168457,20.259186 C1.168457,20.439972 1.2486572,20.600525 1.3690186,20.721252 C1.3690186,20.721252 2.3710938,21.722961 2.3710938,21.722961 C2.491455,21.843048 2.671875,21.92331 2.8322754,21.92331 C2.9925537,21.92331 3.1729736,21.843048 3.293213,21.722961 C3.293213,21.722961 12.633789,12.381866 12.633789,12.381866 C12.754028,12.262451 12.8342285,12.081696 12.8342285,11.920471 C12.8342285,11.761261 12.754028,11.580505 12.633789,11.460419 C12.633789,11.460419 3.293213,2.119995 3.293213,2.119995 C3.1729736,1.9985657 2.9925537,1.9189758 2.8322754,1.9189758 C2.671875,1.9189758 2.491455,1.9985657 2.3710938,2.119995 C2.3710938,2.119995 1.3690186,3.121704 1.3690186,3.121704 C1.2486572,3.2424316 1.168457,3.4225464 1.168457,3.5830688 C1.168457,3.742279 1.2486572,3.924408 1.3690186,4.044464 C1.3690186,4.044464 9.246338,11.920471 9.246338,11.920471 C9.246338,11.920471 1.3690186,19.798492 1.3690186,19.798492 C1.2486572,19.91922 1.168457,20.099335 1.168457,20.259186 Z"/>
</svg>