<svg xmlns="http://www.w3.org/2000/svg"
 xmlns:xlink="http://www.w3.org/1999/xlink"
 width="14px" height="23px"  viewBox="0 0 14 23">
<path fill-rule="evenodd"  fill="#303030"
 d="M12.83094,2.7358704 C12.83094,2.5544128 12.750717,2.3945618 12.630554,2.2738037 C12.630554,2.2738037 11.628281,1.2714539 11.628281,1.2714539 C11.508003,1.1513672 11.327644,1.0724487 11.167313,1.0724487 C11.006866,1.0724487 10.826508,1.1513672 10.706345,1.2714539 C10.706345,1.2714539 1.3656769,10.611877 1.3656769,10.611877 C1.2453995,10.732605 1.1652908,10.912048 1.1652908,11.073944 C1.1652908,11.233124 1.2453995,11.41391 1.3656769,11.535339 C1.3656769,11.535339 10.706345,20.87442 10.706345,20.87442 C10.826508,20.994476 11.006866,21.07544 11.167313,21.07544 C11.327644,21.07544 11.508003,20.994476 11.628281,20.87442 C11.628281,20.87442 12.630554,19.872711 12.630554,19.872711 C12.750717,19.752655 12.83094,19.571869 12.83094,19.411987 C12.83094,19.251465 12.750717,19.070007 12.630554,18.950623 C12.630554,18.950623 4.753128,11.073944 4.753128,11.073944 C4.753128,11.073944 12.630554,3.1965942 12.630554,3.1965942 C12.750717,3.0751648 12.83094,2.895752 12.83094,2.7358704 Z"/>
</svg>