<svg xmlns="http://www.w3.org/2000/svg"
 xmlns:xlink="http://www.w3.org/1999/xlink"
 width="26px" height="34px"  viewBox="0 0 26 34">
<path fill-rule="evenodd"  fill="#e74c3c"
 d="M23.889832,19.295898 C23.889832,19.295898 21.38086,15.52179 21.38086,15.52179 C21.261475,15.342346 21.062805,15.235107 20.850098,15.235107 C20.637085,15.235107 20.438416,15.342346 20.319214,15.52179 C20.319214,15.52179 17.81018,19.295898 17.81018,19.295898 C17.676636,19.496887 17.663147,19.75592 17.774109,19.970459 C17.885132,20.184265 18.103394,20.318481 18.341064,20.318481 C18.341064,20.318481 19.57898,20.318481 19.57898,20.318481 C19.0448,22.56543 16.83081,24.365784 14.496216,24.93103 C14.496216,24.93103 14.496216,10.466064 14.496216,10.466064 C14.496216,10.466064 16.490906,10.466064 16.490906,10.466064 C17.041687,10.466064 17.488281,10.010071 17.488281,9.448181 C17.488281,8.88562 17.041687,8.430298 16.490906,8.430298 C16.490906,8.430298 15.463318,8.430298 15.463318,8.430298 C16.181702,7.7510376 16.639465,6.7891235 16.639465,5.7125854 C16.639465,3.6646118 15.00647,1.9978638 12.999512,1.9978638 C10.992676,1.9978638 9.3602295,3.6646118 9.3602295,5.7125854 C9.3602295,6.7891235 9.817505,7.7510376 10.536316,8.430298 C10.536316,8.430298 9.509216,8.430298 9.509216,8.430298 C8.958374,8.430298 8.511841,8.88562 8.511841,9.448181 C8.511841,10.010071 8.958374,10.466064 9.509216,10.466064 C9.509216,10.466064 11.504028,10.466064 11.504028,10.466064 C11.504028,10.466064 11.504028,24.93103 11.504028,24.93103 C9.168884,24.365784 6.9544067,22.566101 6.420105,20.318481 C6.420105,20.318481 7.6585693,20.318481 7.6585693,20.318481 C7.8963013,20.318481 8.11438,20.184265 8.225525,19.970459 C8.336548,19.75592 8.322815,19.496887 8.189331,19.295898 C8.189331,19.295898 5.680359,15.52179 5.680359,15.52179 C5.561096,15.342346 5.3623047,15.235107 5.149597,15.235107 C4.9367065,15.235107 4.737915,15.342346 4.6187134,15.52179 C4.6187134,15.52179 2.1096802,19.295898 2.1096802,19.295898 C1.9762573,19.496887 1.9626465,19.75592 2.0736084,19.970459 C2.1846313,20.184265 2.402893,20.318481 2.640564,20.318481 C2.640564,20.318481 3.9904175,20.318481 3.9904175,20.318481 C4.4925537,23.812622 7.4451294,27.377625 10.769897,28.55603 C10.769897,28.55603 10.521118,28.867676 10.521118,28.867676 C10.343811,29.088928 10.328369,29.40326 10.483093,29.64209 C10.483093,29.64209 12.464294,32.70453 12.464294,32.70453 C12.583069,32.888 12.784302,32.998596 13.0,32.998596 C13.215698,32.998596 13.416809,32.888 13.535217,32.70453 C13.535217,32.70453 15.516357,29.64209 15.516357,29.64209 C15.671143,29.40326 15.655579,29.088928 15.4783325,28.868347 C15.4783325,28.868347 15.229553,28.55603 15.229553,28.55603 C18.55426,27.377625 21.506958,23.812622 22.009155,20.318481 C22.009155,20.318481 23.35907,20.318481 23.35907,20.318481 C23.596802,20.318481 23.81488,20.184265 23.925903,19.970459 C24.037048,19.75592 24.023315,19.496887 23.889832,19.295898 ZM12.999512,4.0343018 C13.906921,4.0343018 14.644653,4.7871094 14.644653,5.7125854 C14.644653,6.6394043 13.906921,7.3914795 12.999512,7.3914795 C12.092712,7.3914795 11.3550415,6.6394043 11.3550415,5.7125854 C11.3550415,4.7871094 12.092712,4.0343018 12.999512,4.0343018 Z"/>
</svg>